<svg xmlns="http://www.w3.org/2000/svg" width="17" height="17" viewBox="0 0 17 17" fill="none">
    <g clip-path="url(#clip0_2021_5254)">
      <path d="M15.1928 2.72074L8.28697 0.303711L1.38116 2.72074V8.28683C1.38116 11.1369 3.1311 13.1292 4.76225 14.366C5.74707 15.1052 6.82724 15.708 7.97345 16.1581C8.05172 16.1875 8.13044 16.2156 8.20963 16.2423L8.28697 16.2699L8.3657 16.2423C8.5167 16.1899 8.66637 16.1337 8.81458 16.0738C9.88204 15.634 10.8892 15.0601 11.8117 14.366C13.4435 13.1292 15.1928 11.1369 15.1928 8.28683V2.72074ZM7.59708 10.6452L4.66833 7.71503L5.64481 6.73785L7.59777 8.69151L11.5044 4.78489L12.4816 5.76137L7.59708 10.6452Z" fill="#597391"/>
    </g>
    <defs>
      <clipPath id="clip0_2021_5254">
        <rect width="16.5739" height="16.5739" fill="white"/>
      </clipPath>
    </defs>
  </svg>