<svg width="131" height="59" viewBox="0 0 131 59" fill="none" xmlns="http://www.w3.org/2000/svg">
<path d="M53.6219 11.596C64.0432 9.65038 79.0468 7.80588 91.7598 8.21098C98.1205 8.4137 103.87 9.17888 108.177 10.7538C112.494 12.3322 115.238 14.6727 115.851 17.9541C116.465 21.248 114.812 24.5396 111.467 27.7423C108.13 30.9376 103.195 33.9553 97.4913 36.6698C86.0889 42.0959 71.7417 46.2507 61.3339 48.1939C50.9228 50.1377 37.1347 51.3844 25.6375 50.385C19.8858 49.885 14.744 48.8262 10.8915 47.0354C7.04041 45.2453 4.55357 42.7637 3.93394 39.4451C3.31381 36.1236 4.69853 32.9762 7.57504 30.0171C10.4553 27.0542 14.7802 24.3387 19.8779 21.9244C30.067 17.0988 43.2046 13.5409 53.6219 11.596Z" stroke="white" stroke-opacity="0.2"/>
<path d="M87.8342 22.5527L88.0059 32.613H87.92L85.0093 22.5564H80.2215V35.2233H83.386L83.2143 24.8231H83.3002L86.4199 35.2233H90.9987V22.5564L87.8342 22.5527ZM27.567 22.5527L25.175 35.354H28.638L30.3919 23.7103H30.4777L32.1906 35.354H35.6089L33.2579 22.5564L27.567 22.5527ZM46.901 22.5527L45.3188 32.3143H45.2329L43.6507 22.5564H38.4375L38.18 35.354H41.3893L41.4751 23.841H41.5162L43.6544 35.354H46.9048L49.043 23.841H49.1289L49.2147 35.354H52.424L52.1254 22.5564L46.901 22.5527ZM19.7864 31.7168C19.8802 32.0218 19.8943 32.3458 19.8274 32.6578C19.7416 33.0835 19.4431 33.513 18.5885 33.513C17.775 33.513 17.3048 33.0425 17.3048 32.3553V31.1155H13.8828V32.1014C13.8828 34.9694 16.148 35.8245 18.5475 35.8245C20.8537 35.8245 22.7792 35.0105 23.0778 32.9117C23.2494 31.7989 23.1225 31.0745 23.0778 30.8168C22.4807 28.1206 17.6033 27.3476 17.26 25.8501C17.218 25.6242 17.218 25.3926 17.26 25.1667C17.3458 24.7373 17.6481 24.3078 18.4168 24.3078C19.1856 24.3078 19.611 24.7821 19.611 25.4655V26.2347H22.8203V25.3385C22.8203 22.5564 20.2976 22.127 18.5027 22.127C16.2338 22.127 14.353 22.8962 14.0097 24.9539C13.8974 25.5202 13.9127 26.1045 14.0545 26.6642C14.5657 29.3156 19.1445 30.0886 19.7864 31.713M61.4025 31.713C61.5293 32.0118 61.4846 32.4001 61.4435 32.6578C61.3577 33.0835 61.0591 33.513 60.2046 33.513C59.3911 33.513 58.9209 33.0425 58.9209 32.3553V31.1155H55.4989V32.1014C55.4989 34.9246 57.723 35.7797 60.1188 35.7797C62.4287 35.7797 64.3095 35.0105 64.608 32.8707C64.7797 31.7578 64.6528 31.0745 64.608 30.772C64.0968 28.1206 59.2605 27.3065 58.9209 25.8501C58.8789 25.6242 58.8789 25.3926 58.9209 25.1667C59.0067 24.7373 59.3052 24.3078 60.0777 24.3078C60.8017 24.3078 61.2719 24.7821 61.2719 25.4655V26.2347H64.4363V25.3385C64.4363 22.5564 61.9548 22.127 60.1598 22.127C57.8947 22.127 56.0549 22.8552 55.7116 24.9539C55.6258 25.5103 55.6258 26.0219 55.7564 26.6642C56.2676 29.3156 60.7569 30.0438 61.4025 31.713ZM72.1797 33.4271C73.0753 33.4271 73.3365 32.8296 73.4186 32.486C73.4634 32.3553 73.4634 32.1425 73.4634 32.0155V22.5527H76.71V31.7541C76.71 32.0118 76.71 32.4823 76.6726 32.613C76.4562 35.0067 74.5754 35.776 72.2207 35.776C69.8697 35.776 67.9889 35.0067 67.7725 32.6093C67.7725 32.4823 67.7315 32.0118 67.7315 31.7541V22.5527H70.978V32.0118C70.978 32.1836 70.978 32.3516 71.0228 32.4823C71.0228 32.8221 71.284 33.4234 72.1797 33.4234M98.8689 33.2964C99.8093 33.2964 100.108 32.6989 100.194 32.3516C100.235 32.2246 100.235 32.0118 100.235 31.8811V30.04H98.9099V28.1579H103.444V31.5823C103.444 31.84 103.444 32.0118 103.403 32.4412C103.186 34.7939 101.175 35.6042 98.9099 35.6042C96.6448 35.6042 94.6334 34.7939 94.4207 32.4375C94.3759 32.0118 94.3759 31.84 94.3759 31.5823V26.1899C94.3759 25.9771 94.4207 25.5476 94.4207 25.331C94.7192 22.9373 96.6448 22.168 98.9099 22.168C101.175 22.168 103.145 22.9373 103.399 25.3348C103.444 25.7194 103.444 26.1899 103.444 26.1899V26.6194H100.235V25.8912C100.235 25.8912 100.235 25.5924 100.194 25.4206C100.149 25.1219 99.8951 24.4796 98.9099 24.4796C97.9695 24.4796 97.7158 25.0771 97.6262 25.4206C97.5852 25.5887 97.5852 25.8053 97.5852 26.0181V31.8811C97.5852 32.0528 97.5852 32.2246 97.6262 32.3516C97.6262 32.6952 97.9695 33.2964 98.8689 33.2964Z" fill="white"/>
<rect x="3.66016" y="7.87598" width="112.795" height="43.2537" stroke="#FFFCFC" stroke-opacity="0.2"/>
<line x1="130.652" y1="36.3242" x2="3.15942" y2="36.3242" stroke="white" stroke-opacity="0.2"/>
</svg>
