<svg width="83" height="92" viewBox="0 0 83 92" fill="none" xmlns="http://www.w3.org/2000/svg">
<rect x="3.33984" y="7.81836" width="42.9091" height="54.4091" stroke="#FFFCFC" stroke-opacity="0.2"/>
<path d="M14.3724 24.1446C18.7315 24.1446 21.2844 26.6338 23.908 26.6338C26.5317 26.6338 30.4468 24.1446 34.8059 24.1446C37.8982 24.1446 41.8677 25.7476 44.723 28.9562C43.1428 29.907 39.977 32.7497 39.977 39.0796C39.977 43.9833 44.4914 47.849 46.75 48.5958C44.2953 56.0285 39.5029 62.7268 34.8059 62.7268C30.7192 62.7268 27.9947 60.2377 23.908 60.2377C19.8213 60.2377 18.4591 62.7268 14.3724 62.7268C7.65654 62.7268 0.75 49.0364 0.75 39.0796C0.75 29.1229 8.92342 24.1446 14.3724 24.1446ZM23.908 21.6554C23.908 14.1879 27.9947 10.4541 36.1681 10.4541C36.1681 17.9216 32.0814 21.6554 23.908 21.6554Z" stroke="white" stroke-width="1.5" stroke-linejoin="round"/>
<circle cx="50.4109" cy="38.1589" r="10.4773" stroke="white" stroke-opacity="0.2"/>
<circle cx="26.364" cy="10.9773" r="10.4773" stroke="white" stroke-opacity="0.2"/>
<circle cx="25.3171" cy="70.5681" r="10.4773" stroke="white" stroke-opacity="0.2"/>
<line x1="25.2969" y1="27.1816" x2="25.2969" y2="91.9998" stroke="white" stroke-opacity="0.2"/>
<line x1="82.2969" y1="39.1816" x2="3.88779" y2="39.1816" stroke="white" stroke-opacity="0.2"/>
</svg>
