<svg width="87" height="94" viewBox="0 0 87 94" fill="none" xmlns="http://www.w3.org/2000/svg">
<path d="M48.6232 5.71671C57.3269 8.53092 62.0215 17.67 59.1384 26.1153C56.2552 34.5607 46.8742 39.149 38.1703 36.3351C29.4663 33.521 24.7709 24.3817 27.6542 15.9362C30.5375 7.49085 39.9193 2.90265 48.6232 5.71671Z" stroke="white"/>
<path d="M69.7873 30.8486C78.491 33.6628 83.1855 42.8019 80.3025 51.2472C77.4193 59.6925 68.0383 64.2808 59.3344 61.467C50.6303 58.6529 45.935 49.5135 48.8182 41.068C51.7015 32.6227 61.0833 28.0345 69.7873 30.8486Z" stroke="white"/>
<path d="M26.8381 30.3017C35.5418 33.1159 40.2363 42.255 37.3533 50.7003C34.4701 59.1456 25.0891 63.7339 16.3851 60.9201C7.68112 58.106 2.98578 48.9666 5.86901 40.5212C8.75231 32.0758 18.1341 27.4876 26.8381 30.3017Z" stroke="white"/>
<path d="M47.6349 54.8866C56.3387 57.7008 61.0332 66.84 58.1501 75.2853C55.267 83.7306 45.8859 88.3189 37.182 85.505C28.478 82.691 23.7827 73.5516 26.6659 65.1061C29.5492 56.6608 38.931 52.0726 47.6349 54.8866Z" stroke="white"/>
<line x1="58.457" y1="1.44629" x2="58.457" y2="92.5541" stroke="white" stroke-opacity="0.2"/>
<line x1="84.7031" y1="29.4229" x2="1.48426" y2="29.4228" stroke="white" stroke-opacity="0.2"/>
<line x1="84.7031" y1="61.2383" x2="-0.00179295" y2="61.2383" stroke="white" stroke-opacity="0.2"/>
<line x1="26.25" y1="94" x2="26.25" y2="2.89221" stroke="white" stroke-opacity="0.2"/>
</svg>
