<svg width="30" height="24" viewBox="0 0 30 24" fill="none" xmlns="http://www.w3.org/2000/svg">
<path d="M13.7333 7.86667L10.9667 5.06667C10.7 4.8 10.5667 4.48889 10.5667 4.13333C10.5667 3.77778 10.7 3.46667 10.9667 3.2L13.7373 0.4C14.0013 0.133333 14.3151 0 14.6787 0C15.0431 0 15.3613 0.133333 15.6333 0.4L18.4 3.2C18.6667 3.46667 18.8 3.77778 18.8 4.13333C18.8 4.48889 18.6667 4.8 18.4 5.06667L15.6293 7.86667C15.3653 8.13334 15.0516 8.26667 14.688 8.26667C14.3236 8.26667 14.0053 8.13334 13.7333 7.86667ZM1.33333 23.4667C0.955556 23.4667 0.639111 23.3387 0.384 23.0827C0.128889 22.8267 0.000888889 22.5102 0 22.1333V18.1333C0 17.3778 0.261333 16.7444 0.784 16.2333C1.30667 15.7222 1.93422 15.4667 2.66667 15.4667H7.03334C7.47778 15.4667 7.9 15.5778 8.3 15.8C8.7 16.0222 9.02222 16.3222 9.26667 16.7C9.91111 17.5667 10.7058 18.2444 11.6507 18.7333C12.5956 19.2222 13.6009 19.4667 14.6667 19.4667C15.7556 19.4667 16.7724 19.2222 17.7173 18.7333C18.6622 18.2444 19.4453 17.5667 20.0667 16.7C20.3556 16.3222 20.6947 16.0222 21.084 15.8C21.4733 15.5778 21.8787 15.4667 22.3 15.4667H26.6667C27.4222 15.4667 28.0556 15.7222 28.5667 16.2333C29.0778 16.7444 29.3333 17.3778 29.3333 18.1333V22.1333C29.3333 22.5111 29.2053 22.828 28.9493 23.084C28.6933 23.34 28.3769 23.4676 28 23.4667H21.3333C20.9556 23.4667 20.6391 23.3387 20.384 23.0827C20.1289 22.8267 20.0009 22.5102 20 22.1333V20.4333C19.2222 20.9889 18.3831 21.4111 17.4827 21.7C16.5822 21.9889 15.6436 22.1333 14.6667 22.1333C13.7111 22.1333 12.7778 21.9836 11.8667 21.684C10.9556 21.3844 10.1111 20.9564 9.33334 20.4V22.1333C9.33334 22.5111 9.20534 22.828 8.94934 23.084C8.69334 23.34 8.37689 23.4676 8 23.4667H1.33333ZM4 14.1333C2.88889 14.1333 1.94445 13.7444 1.16667 12.9667C0.388889 12.1889 0 11.2444 0 10.1333C0 9 0.388889 8.05022 1.16667 7.284C1.94445 6.51778 2.88889 6.13422 4 6.13333C5.13334 6.13333 6.08356 6.51689 6.85067 7.284C7.61778 8.05111 8.00089 9.00089 8 10.1333C8 11.2444 7.61689 12.1889 6.85067 12.9667C6.08445 13.7444 5.13422 14.1333 4 14.1333ZM25.3333 14.1333C24.2222 14.1333 23.2778 13.7444 22.5 12.9667C21.7222 12.1889 21.3333 11.2444 21.3333 10.1333C21.3333 9 21.7222 8.05022 22.5 7.284C23.2778 6.51778 24.2222 6.13422 25.3333 6.13333C26.4667 6.13333 27.4169 6.51689 28.184 7.284C28.9511 8.05111 29.3342 9.00089 29.3333 10.1333C29.3333 11.2444 28.9502 12.1889 28.184 12.9667C27.4178 13.7444 26.4676 14.1333 25.3333 14.1333Z" fill="#7F746A"/>
</svg>
