<svg width="23" height="28" viewBox="0 0 23 28" fill="none" xmlns="http://www.w3.org/2000/svg">
    <path d="M22.8366 16.3145V16.7092C22.8366 20.1662 21.2528 23.255 18.7718 25.2624C16.8723 26.7936 14.4413 27.7171 11.8287 27.7171C9.21622 27.7171 6.78522 26.7936 4.88567 25.2624C4.75413 25.1308 4.59627 24.9993 4.43578 24.8677C3.67017 26.5568 1.98111 27.7197 0 27.7197V23.6549C0.449892 23.6549 0.818225 23.2865 0.818225 22.8366V0H4.88304V7.73499C6.78259 6.20378 9.18728 5.28032 11.8261 5.28032C14.465 5.28032 16.8696 6.20378 18.7692 7.73499C21.2502 9.76872 22.834 12.8575 22.834 16.3145H22.8366ZM18.7692 16.3145C18.7692 12.4602 15.6542 9.37144 11.8261 9.37144C9.89763 9.37144 8.18225 10.137 6.91677 11.4052C5.67496 12.647 4.88304 14.3887 4.88304 16.3145V16.7092C4.88304 18.6087 5.67496 20.353 6.91677 21.6185C8.18488 22.8603 9.90026 23.6522 11.8261 23.6522C15.6542 23.6522 18.7692 20.5372 18.7692 16.7092V16.3145Z" fill="#7F746A"/>
    </svg>
    